<svg width="91" height="41" viewBox="0 0 91 41" fill="none" xmlns="http://www.w3.org/2000/svg">
<path d="M3.21755 41L2.81755 40.95C1.51755 40.75 0.367546 39.65 0.367546 38.3L0.517546 35.2C0.567546 34.25 0.717546 33.35 0.817546 32.4C0.967546 31 1.11755 29.55 1.31755 28.15L2.46755 19.85C3.26755 14.3 4.11755 8.8 5.16755 3.35C5.46755 1.9 6.91755 1.05 8.26755 1H8.41755C9.01755 1 9.66755 1.3 10.1675 1.65C10.6675 2.05 11.2175 2.65 11.3175 3.35C12.1675 8.25 13.2675 13.1 14.6175 17.85C17.6175 12.8 20.2175 7.6 22.5675 2.2C22.8175 1.55 23.7675 0.899998 24.4675 0.699997L25.3175 0.599999L26.1175 0.699997C27.4175 1 28.4675 2.4 28.4675 3.7V3.8C28.3675 6.3 28.2675 8.8 28.1175 11.25C27.7175 20.05 27.3175 28.8 26.8675 37.6C26.8175 39.35 25.5175 40.7 23.7175 40.75H23.5675C21.9675 40.75 20.5175 39.25 20.5175 37.7L21.4175 18.85C19.8175 21.65 18.1675 24.4 16.3675 27.05C15.7175 28.05 14.7675 28.6 13.6175 28.6H13.2175C11.9175 28.4 10.9675 27.5 10.5675 26.3C9.91755 24.4 9.31755 22.5 8.76755 20.55L6.66755 35.55L6.76755 34.7C6.61755 35.75 6.41755 36.75 6.21755 37.8C6.21755 37.5 6.26755 37.25 6.31755 37C6.21755 37.65 6.11755 38.25 5.96755 38.9C5.71755 40.15 4.46755 41 3.21755 41ZM40.2406 36.6H40.1406C39.0406 36.55 38.1906 36.05 37.6406 35.15C37.3906 34.75 37.2906 34.35 37.2906 33.95C37.2906 33.65 37.3406 33.35 37.3906 33.05V30.7L37.3406 27.95V26.75C36.5406 26.65 35.6906 26.55 34.8906 26.5L32.8906 26.35L32.7906 26.55L32.1906 27.9L30.3906 31.9C30.3906 32 30.3406 32.05 30.2906 32.15L29.8906 33.25C29.4906 34.15 28.7906 34.75 27.8406 34.75C27.6906 34.75 27.4906 34.75 27.2906 34.7C26.2906 34.5 25.7406 33.55 25.7406 32.65L25.7906 32.1C26.1906 30.2 26.5906 28.25 27.1906 26.4C29.3406 19.6 32.6906 13.15 36.5406 7.25C37.1406 6.35 38.0406 5.85 39.0406 5.85H39.3906C40.0406 5.95 40.5906 6.2 41.0406 6.65C41.4406 7 41.5906 7.45 41.7906 7.9C42.5406 9.75 42.7406 11.8 42.7906 13.75C42.9406 17.15 42.9906 20.6 43.0406 24C43.0906 25.75 43.0906 27.5 43.0906 29.25V32.85C43.0906 33.45 43.0906 34 42.8906 34.5C42.4906 35.6 41.4906 36.6 40.2406 36.6ZM37.2906 21.35L37.1906 17.35C36.4906 18.65 35.8406 20 35.1906 21.3L37.2906 21.35ZM44.048 36.25C43.648 36.25 43.198 36.1 42.748 35.9C42.148 35.55 41.648 34.9 41.448 34.25L41.348 33.65C41.348 33.1 41.548 32.6 41.748 32.15L41.498 32.65C41.548 32.55 41.598 32.4 41.598 32.3C41.698 32.05 41.698 31.8 41.748 31.55L41.648 32.3L41.998 29.9L42.448 25.95C42.948 20.3 43.348 14.65 43.698 8.95C43.748 7.5 44.698 6.35 46.148 6.15L46.548 6.1C47.798 6.1 49.048 6.95 49.298 8.2C49.748 10.05 50.248 11.85 50.848 13.65C51.348 15.2 51.898 16.8 52.548 18.35C52.698 18.75 52.848 19.2 53.048 19.65L53.348 20.35L54.298 22.55L54.648 23.35C54.998 20.1 55.248 16.85 55.548 13.65L55.848 9.4C55.948 8.5 55.898 7.45 56.348 6.7C56.648 6.25 57.148 5.6 57.548 5.4C57.948 5.15 58.348 5 58.898 4.95C59.798 4.95 60.748 5.6 61.148 6.45C61.448 7.05 61.648 7.7 61.648 8.35V8.55L61.448 11C61.098 15.5 60.698 20.05 60.248 24.55C60.048 26.75 59.798 29 59.498 31.2C59.348 32.45 59.198 34.2 58.198 35.1C57.598 35.6 56.998 35.9 56.248 35.9L55.798 35.85C54.948 35.75 54.098 35.3 53.698 34.5L51.148 29.3C50.198 27.35 49.298 25.35 48.398 23.35L48.098 26.35C47.948 28.15 47.698 30 47.448 31.8C47.248 32.8 47.048 34 46.448 34.9C45.848 35.75 44.998 36.25 44.048 36.25ZM64.4832 36C62.6832 36 60.7832 35.35 59.5832 34C58.3832 32.65 57.8832 31.05 57.8832 29.4C57.8832 28.95 57.9332 28.45 57.9832 28C58.2832 26.05 59.3832 24.45 60.8832 23.25C60.1332 22.3 59.5832 21.2 59.1832 20C58.9332 19.15 58.7832 18.3 58.7832 17.4C58.7832 15.3 59.4832 13.2 60.5332 11.4C61.9832 8.9 64.3332 6.8 67.1832 6.15C67.8332 6 68.4832 5.9 69.1832 5.9C70.0832 5.9 70.9832 6.05 71.8332 6.35C73.4332 6.9 74.7332 7.85 75.6832 9.25C76.4332 10.3 76.7832 11.55 76.7832 12.85C76.7832 14.15 76.3832 15.5 75.6332 16.55C75.2832 17.05 74.7332 17.35 74.1832 17.35C73.9332 17.35 73.6332 17.3 73.3832 17.15C72.8332 16.85 72.5832 16.35 72.5832 15.75C72.5832 15.5 72.6332 15.2 72.7832 14.9C72.7332 15 72.6832 15 72.6832 15L72.8332 14.7V14L72.7332 13.55L72.2332 12.65C72.1832 12.6 72.1832 12.55 72.1332 12.55C72.0832 12.45 72.0332 12.35 71.9332 12.3L71.6332 12L71.1832 11.75C71.1332 11.75 71.0832 11.75 71.0832 11.7L70.2332 11.5H69.2832C68.9832 11.55 68.6832 11.6 68.4332 11.7L67.9832 11.85L67.6832 12C67.5332 12.05 67.3832 12.2 67.1832 12.3C67.1332 12.3 67.0832 12.35 67.0332 12.4L66.1832 13.2L65.9832 13.45C65.9832 13.5 65.9332 13.55 65.8832 13.55L65.0832 14.95L64.8332 15.7C64.6832 16.05 64.5832 16.45 64.5332 16.8V17.75L64.7832 18.7L65.1832 19.45L65.9832 20.35L66.3332 20.6C66.2332 20.55 66.1832 20.45 66.1332 20.45C66.1832 20.5 66.2332 20.55 66.3332 20.55C66.5332 20.7 66.7332 20.8 66.9332 20.9L67.3832 21.05C68.6332 21.4 69.4332 22.55 69.4832 23.85V23.95C69.4832 25.05 68.5332 26.4 67.3832 26.6C66.7832 26.7 66.2332 26.9 65.6332 27.1C65.5832 27.1 65.5332 27.1 65.4832 27.15C65.3332 27.2 65.1832 27.25 65.0832 27.35C64.8832 27.45 64.6832 27.55 64.5332 27.7L64.4332 27.75L63.9832 28.15L63.6832 28.65C63.6832 28.8 63.6332 28.95 63.5832 29.1V29.55L63.6332 29.8C63.6832 29.85 63.6832 29.9 63.6832 29.95L63.7332 30.05C63.7832 30.05 63.8332 30.1 63.8832 30.15L63.9332 30.2C63.9832 30.2 64.0332 30.2 64.0332 30.25H65.0832L65.7332 30.15C65.8832 30.1 66.0832 30.1 66.1832 30.1C66.4332 30.05 66.6332 29.95 66.8332 29.9C67.1332 29.7 67.4332 29.6 67.7332 29.5H67.9332C68.3332 29.25 68.7332 29.2 69.1332 29.2L69.8332 29.25C70.5332 29.35 71.0332 30.15 71.0332 30.8C71.0332 31.25 70.9832 31.7 70.7332 32.1C70.6332 32.3 70.4832 32.45 70.3832 32.6L69.7332 33.5L69.1832 33.95C68.3332 34.8 67.1832 35.6 65.9832 35.85C65.4832 35.95 64.9832 36 64.4832 36ZM87.3257 36.4C86.7257 36.4 86.1258 36.2 85.6257 35.8C85.2757 35.7 84.9257 35.6 84.5758 35.55C83.9757 35.4 83.3757 35.3 82.7757 35.2C81.6257 35.1 80.4757 35 79.3257 35C78.0257 35 76.7757 35.1 75.5257 35.25L76.0257 35.2L75.0257 35.25H74.1257L73.8757 35.2L73.4257 35.25C72.6757 35.25 72.0257 34.85 71.6257 34.2C71.4257 33.85 71.3257 33.5 71.3257 33.15C71.3257 32.6 71.5757 32.05 71.9257 31.6C71.9757 31.6 71.9757 31.55 71.9757 31.55C72.4257 30.85 73.0757 30.35 73.8257 30L75.0257 19.95C75.2757 17.95 75.5257 15.95 75.7257 14L76.1257 11.1L76.3757 9C76.5257 8.5 76.6257 8 76.7257 7.5C76.9257 6.25 78.2257 5.55 79.3757 5.55H79.6757C80.8757 5.7 81.9757 6.75 81.9757 8.05V8.2C81.9257 9.2 81.8757 10.25 81.7757 11.3L81.4757 14.15L79.6757 29.25C79.9757 29.3 80.3257 29.3 80.6257 29.3C82.1257 29.35 83.6757 29.55 85.2257 29.85C86.8757 30.15 88.9257 30.45 89.8258 32.1C90.0757 32.55 90.1758 33.05 90.1758 33.5C90.1758 34.35 89.8258 35.2 89.0757 35.75C88.5757 36.15 87.9257 36.4 87.3257 36.4Z" fill="#F2E205"/>
</svg>
