<svg width="56" height="56" viewBox="0 0 56 56" fill="none" xmlns="http://www.w3.org/2000/svg">
<g filter="url(#filter0_d_9_214)">
<path d="M27.9266 0C14.7126 0 4 10.7123 4 23.9263C4 37.1409 14.7126 47.8523 27.9266 47.8523C41.142 47.8523 51.8534 37.1409 51.8534 23.9263C51.8534 10.7131 41.142 0.00114285 27.9263 0.00114285L27.9266 0ZM38.8991 34.5086C38.4706 35.2114 37.5506 35.4343 36.8477 35.0029C31.23 31.5714 24.158 30.7943 15.8294 32.6971C15.0269 32.88 14.2269 32.3771 14.044 31.5743C13.8603 30.7714 14.3611 29.9714 15.1657 29.7886C24.28 27.7054 32.098 28.6029 38.4049 32.4571C39.1077 32.8886 39.3306 33.8057 38.8991 34.5086ZM41.8277 27.9929C41.2877 28.8714 40.1391 29.1486 39.262 28.6086C32.8306 24.6546 23.0269 23.5097 15.4197 25.8189C14.4331 26.1169 13.3911 25.5609 13.0917 24.576C12.7946 23.5894 13.3509 22.5494 14.3357 22.2494C23.0251 19.6129 33.8277 20.89 41.2134 25.4286C42.0906 25.9686 42.3677 27.1169 41.8277 27.9929ZM42.0791 21.2089C34.3677 16.6286 21.6449 16.2074 14.2823 18.442C13.1 18.8006 11.8497 18.1331 11.4914 16.9509C11.1331 15.768 11.8 14.5186 12.9831 14.1591C21.4349 11.5934 35.4849 12.0891 44.3631 17.3597C45.4289 17.9909 45.7774 19.3643 45.146 20.4263C44.5174 21.4897 43.1403 21.8403 42.0803 21.2089H42.0791Z" fill="#F2E205"/>
</g>
<defs>
<filter id="filter0_d_9_214" x="0" y="0" width="56" height="56" filterUnits="userSpaceOnUse" color-interpolation-filters="sRGB">
<feFlood flood-opacity="0" result="BackgroundImageFix"/>
<feColorMatrix in="SourceAlpha" type="matrix" values="0 0 0 0 0 0 0 0 0 0 0 0 0 0 0 0 0 0 127 0" result="hardAlpha"/>
<feOffset dy="4"/>
<feGaussianBlur stdDeviation="2"/>
<feComposite in2="hardAlpha" operator="out"/>
<feColorMatrix type="matrix" values="0 0 0 0 0 0 0 0 0 0 0 0 0 0 0 0 0 0 1 0"/>
<feBlend mode="normal" in2="BackgroundImageFix" result="effect1_dropShadow_9_214"/>
<feBlend mode="normal" in="SourceGraphic" in2="effect1_dropShadow_9_214" result="shape"/>
</filter>
</defs>
</svg>
