<svg width="56" height="56" viewBox="0 0 56 56" fill="none" xmlns="http://www.w3.org/2000/svg">
<g filter="url(#filter0_d_9_212)">
<path d="M4 48L7.374 35.674C5.292 32.066 4.198 27.976 4.2 23.782C4.206 10.67 14.876 0 27.986 0C34.348 0.002 40.32 2.48 44.812 6.976C49.302 11.472 51.774 17.448 51.772 23.804C51.766 36.918 41.096 47.588 27.986 47.588C24.006 47.586 20.084 46.588 16.61 44.692L4 48ZM17.194 40.386C20.546 42.376 23.746 43.568 27.978 43.57C38.874 43.57 47.75 34.702 47.756 23.8C47.76 12.876 38.926 4.02 27.994 4.016C17.09 4.016 8.22 12.884 8.216 23.784C8.214 28.234 9.518 31.566 11.708 35.052L9.71 42.348L17.194 40.386ZM39.968 29.458C39.82 29.21 39.424 29.062 38.828 28.764C38.234 28.466 35.312 27.028 34.766 26.83C34.222 26.632 33.826 26.532 33.428 27.128C33.032 27.722 31.892 29.062 31.546 29.458C31.2 29.854 30.852 29.904 30.258 29.606C29.664 29.308 27.748 28.682 25.478 26.656C23.712 25.08 22.518 23.134 22.172 22.538C21.826 21.944 22.136 21.622 22.432 21.326C22.7 21.06 23.026 20.632 23.324 20.284C23.626 19.94 23.724 19.692 23.924 19.294C24.122 18.898 24.024 18.55 23.874 18.252C23.724 17.956 22.536 15.03 22.042 13.84C21.558 12.682 21.068 12.838 20.704 12.82L19.564 12.8C19.168 12.8 18.524 12.948 17.98 13.544C17.436 14.14 15.9 15.576 15.9 18.502C15.9 21.428 18.03 24.254 18.326 24.65C18.624 25.046 22.516 31.05 28.478 33.624C29.896 34.236 31.004 34.602 31.866 34.876C33.29 35.328 34.586 35.264 35.61 35.112C36.752 34.942 39.126 33.674 39.622 32.286C40.118 30.896 40.118 29.706 39.968 29.458Z" fill="#F2E205"/>
</g>
<defs>
<filter id="filter0_d_9_212" x="0" y="0" width="56.0001" height="56" filterUnits="userSpaceOnUse" color-interpolation-filters="sRGB">
<feFlood flood-opacity="0" result="BackgroundImageFix"/>
<feColorMatrix in="SourceAlpha" type="matrix" values="0 0 0 0 0 0 0 0 0 0 0 0 0 0 0 0 0 0 127 0" result="hardAlpha"/>
<feOffset dy="4"/>
<feGaussianBlur stdDeviation="2"/>
<feComposite in2="hardAlpha" operator="out"/>
<feColorMatrix type="matrix" values="0 0 0 0 0 0 0 0 0 0 0 0 0 0 0 0 0 0 1 0"/>
<feBlend mode="normal" in2="BackgroundImageFix" result="effect1_dropShadow_9_212"/>
<feBlend mode="normal" in="SourceGraphic" in2="effect1_dropShadow_9_212" result="shape"/>
</filter>
</defs>
</svg>
